<svg xmlns="http://www.w3.org/2000/svg" viewBox="0 0 320 320" role="img" aria-labelledby="title desc">
<title id="title">Rei Minato</title><desc id="desc">An adult courier captain with an asymmetrical dark haircut, teal eyes, orange flight jacket and illuminated headset.</desc>
<defs>
 <linearGradient id="bg" x2="1" y2="1"><stop stop-color="#142439"/><stop offset="1" stop-color="#284559"/></linearGradient>
 <linearGradient id="skin" x2=".9" y2="1"><stop stop-color="#ffe0bc"/><stop offset="1" stop-color="#d7987e"/></linearGradient>
 <linearGradient id="jacket" x2=".8" y2="1"><stop stop-color="#ffbb68"/><stop offset="1" stop-color="#c96043"/></linearGradient>
 <linearGradient id="hair" x2=".7" y2="1"><stop stop-color="#38535d"/><stop offset=".45" stop-color="#192c3d"/><stop offset="1" stop-color="#102031"/></linearGradient>
</defs>
<rect width="320" height="320" rx="22" fill="url(#bg)"/>
<g fill="none" stroke="#8aead9" opacity=".22"><path d="M18 16H72V118H18ZM256 20H304V155H256M18 237H86M243 197H309" stroke-width="3"/><path d="M22 98H68M258 90H302M258 104H302"/></g>
<circle cx="275" cy="210" r="36" fill="#ffc778" opacity=".12"/>
<!-- Flight suit and raised, worn jacket collar. -->
<path d="M27 320L45 257Q72 231 124 230H205Q260 239 285 266L302 320Z" fill="url(#jacket)" stroke="#152538" stroke-width="4"/>
<path d="M111 320L117 243H205L227 320Z" fill="#183047"/>
<path d="M130 204V245Q164 273 194 241L193 201" fill="url(#skin)" stroke="#653f3e" stroke-width="3"/>
<path d="M131 212Q163 245 194 217V228Q164 253 130 235Z" fill="#b77567"/>
<path d="M93 234L124 216L146 266L119 295L88 263Z" fill="#e28c52" stroke="#603e3c" stroke-width="3"/>
<path d="M201 222L238 241L224 281L184 268Z" fill="#ffc480" stroke="#603e3c" stroke-width="3"/>
<path d="M66 268L48 319M250 275L276 319M100 285L111 320" fill="none" stroke="#b2503e" stroke-width="4"/>
<path d="M51 275L64 284L71 271" fill="none" stroke="#ffe0a5" stroke-width="4"/>
<rect x="236" y="283" width="26" height="10" rx="3" fill="#142b3c"/><path d="M241 288H256" stroke="#8aead9" stroke-width="3"/>
<!-- Face: restrained anime proportions, warm expression. -->
<path d="M93 107Q83 171 108 200L149 231Q166 240 186 229L211 208Q238 173 229 107L186 68L125 77Z" fill="url(#skin)" stroke="#33303a" stroke-width="3"/>
<path d="M207 136Q231 137 223 167L209 182" fill="#d3987f" stroke="#754e4c" stroke-width="2"/>
<path d="M101 147L105 180L132 208L116 173Z" fill="#d18d77" opacity=".6"/>
<path d="M139 146Q158 144 151 163L146 175L155 179" fill="none" stroke="#b27869" stroke-width="2" stroke-linecap="round"/>
<path d="M115 177L129 180M183 175L196 172" stroke="#dc997f" stroke-width="4" opacity=".55"/>
<!-- Eyes and clean upper lashes. -->
<path d="M105 139Q121 125 141 140Q124 156 108 147Z" fill="#fff2da"/>
<ellipse cx="127" cy="141" rx="9" ry="11" fill="#2e8b8a"/><ellipse cx="128" cy="141" rx="4" ry="8" fill="#18334a"/><circle cx="130" cy="136" r="3" fill="#fff9df"/>
<path d="M103 138Q120 126 142 140" fill="none" stroke="#243140" stroke-width="4" stroke-linecap="round"/>
<path d="M169 138Q188 122 207 135Q191 153 174 146Z" fill="#fff2da"/>
<ellipse cx="188" cy="138" rx="9" ry="11" fill="#2e8b8a"/><ellipse cx="189" cy="139" rx="4" ry="8" fill="#18334a"/><circle cx="192" cy="133" r="3" fill="#fff9df"/>
<path d="M169 137Q187 123 208 135" fill="none" stroke="#243140" stroke-width="4" stroke-linecap="round"/>
<path d="M104 121Q119 112 136 119M173 116Q191 108 206 113" fill="none" stroke="#3b3b43" stroke-width="4" stroke-linecap="round"/>
<path d="M145 195Q163 204 181 190Q163 218 145 195Z" fill="#914e53"/><path d="M148 196Q163 202 176 193" stroke="#fff0d2" stroke-width="3"/>
<!-- Asymmetric swept hair, teal edge and single long lock. -->
<path d="M89 158L74 140L82 115L69 105L84 74L94 58L118 62L127 42L154 50L171 38L195 52L214 57Q249 86 236 135L218 163L209 101L187 119L193 91L159 126L168 89L130 131L137 96L101 144L106 113Z" fill="url(#hair)" stroke="#162438" stroke-width="3" stroke-linejoin="round"/>
<path d="M102 69Q128 61 157 58M91 102L118 77M147 111L177 71M204 74L219 97" fill="none" stroke="#517781" stroke-width="3"/>
<path d="M88 98L108 70L128 64M215 75Q235 104 222 137" fill="none" stroke="#8aead9" stroke-width="2" opacity=".8"/>
<!-- Headset behind ear, microphone and co-op insignia. -->
<path d="M91 111Q81 48 151 39Q226 32 241 110" fill="none" stroke="#112033" stroke-width="8"/>
<path d="M94 100Q94 56 141 47" fill="none" stroke="#93b5bf" stroke-width="3"/>
<rect x="223" y="119" width="23" height="43" rx="10" fill="#244657" stroke="#a2c5ce" stroke-width="3"/>
<rect x="232" y="129" width="5" height="20" rx="2" fill="#8aead9"/>
<path d="M238 159Q243 197 187 201" fill="none" stroke="#233448" stroke-width="5"/><rect x="179" y="197" width="18" height="8" rx="4" fill="#b8ced3"/><circle cx="185" cy="201" r="2" fill="#8aead9"/>
<path d="M78 301L84 289L91 301L84 307Z" fill="#ffe0a5"/><path d="M292 222V293" stroke="#8aead9" opacity=".5" stroke-width="2"/>
</svg>
